<?xml version="1.0" standalone="no"?>
<!DOCTYPE svg PUBLIC "-//W3C//DTD SVG 20010904//EN"
 "http://www.w3.org/TR/2001/REC-SVG-20010904/DTD/svg10.dtd">
<svg version="1.0" xmlns="http://www.w3.org/2000/svg"
 width="1667.000000pt" height="1667.000000pt" viewBox="0 0 1667.000000 1667.000000"
 preserveAspectRatio="xMidYMid meet">
<metadata>
Created by potrace 1.11, written by Peter Selinger 2001-2013
</metadata>
<g transform="translate(0.000000,1667.000000) scale(0.100000,-0.100000)"
fill="#000000" stroke="none">
<path d="M12345 13025 c-84 -38 -409 -182 -615 -272 -107 -47 -213 -94 -235
-104 -22 -10 -175 -77 -340 -150 -165 -72 -487 -213 -715 -314 -432 -190 -575
-253 -1050 -462 -157 -69 -313 -138 -348 -154 -34 -16 -65 -29 -68 -29 -3 0
-29 -11 -57 -25 -82 -39 -508 -226 -549 -241 -41 -14 -27 -19 -216 67 -35 16
-65 29 -67 29 -2 0 -37 15 -77 34 -78 36 -216 97 -468 206 -85 37 -177 77
-205 90 -115 52 -723 320 -751 330 -11 5 -60 27 -108 49 -49 23 -90 41 -92 41
-1 0 -119 51 -261 114 -142 63 -373 164 -513 226 -140 62 -385 170 -545 240
-159 70 -348 153 -420 185 -71 31 -150 66 -175 77 -83 38 -183 78 -196 78 -7
0 -42 -13 -76 -29 -35 -15 -117 -52 -183 -81 -66 -28 -140 -61 -165 -72 -25
-11 -58 -26 -75 -34 -94 -42 -563 -248 -580 -254 -11 -4 -45 -19 -75 -33 -76
-35 -683 -302 -980 -432 -135 -59 -267 -117 -295 -130 -61 -28 -389 -172 -430
-190 -16 -7 -56 -24 -88 -39 -32 -14 -59 -26 -62 -26 -2 0 -32 -13 -67 -29
-102 -47 -144 -65 -318 -141 -91 -39 -178 -78 -195 -85 -16 -7 -57 -26 -90
-41 -33 -14 -132 -58 -220 -97 -88 -38 -176 -77 -195 -85 -19 -9 -37 -16 -40
-17 -3 -1 -34 -15 -70 -31 l-66 -31 2 -134 c1 -74 2 -137 3 -141 0 -4 97 -7
213 -7 183 1 219 4 253 19 22 10 69 30 105 45 35 15 92 40 125 55 75 34 275
122 760 335 209 92 403 177 430 189 28 13 192 85 365 161 173 75 352 155 398
176 46 22 86 39 89 39 4 0 63 25 132 56 159 72 206 93 311 139 47 20 99 43
115 50 547 242 966 425 973 425 5 0 90 -36 188 -79 99 -43 293 -129 432 -190
138 -61 363 -160 500 -220 136 -60 416 -183 622 -274 206 -90 395 -174 420
-185 25 -12 180 -80 345 -153 370 -162 731 -320 893 -392 l122 -54 -427 -188
c-236 -103 -461 -203 -501 -221 -41 -19 -75 -34 -77 -34 -2 0 -32 -13 -67 -29
-35 -16 -171 -77 -303 -134 -132 -58 -323 -142 -425 -187 -102 -45 -270 -119
-375 -165 -158 -69 -304 -133 -500 -220 -16 -7 -73 -32 -125 -55 -52 -23 -113
-50 -135 -60 -22 -10 -112 -50 -200 -88 -88 -38 -187 -82 -220 -96 -33 -15
-134 -60 -225 -100 l-165 -72 -3 -1687 -2 -1686 -23 8 c-12 5 -47 20 -77 34
-45 20 -186 82 -415 182 -17 8 -50 22 -75 33 -25 11 -66 29 -92 41 -121 54
-154 68 -313 138 -93 41 -183 81 -200 88 -88 40 -159 71 -292 129 -138 60
-390 170 -458 201 -38 18 -638 282 -685 302 -19 8 -51 22 -70 30 -220 97 -755
334 -825 364 l-90 39 0 1451 c0 798 -2 1454 -5 1458 -7 9 -414 9 -420 0 -4 -6
-5 -3170 -1 -3190 0 -4 16 -12 34 -20 17 -7 55 -23 82 -35 57 -25 634 -279
680 -299 17 -7 53 -23 80 -35 28 -13 104 -46 170 -75 120 -53 623 -275 680
-300 49 -22 367 -161 575 -252 107 -47 213 -93 235 -103 22 -10 81 -36 130
-58 50 -22 378 -167 730 -322 352 -155 642 -285 645 -289 3 -5 50 -28 104 -51
55 -23 122 -53 150 -65 28 -13 263 -117 521 -230 585 -257 779 -343 830 -365
22 -10 159 -71 305 -135 146 -64 279 -123 295 -130 96 -43 397 -175 400 -175
2 0 32 -13 67 -29 35 -16 182 -81 328 -145 146 -64 274 -121 285 -126 11 -5
83 -37 160 -70 77 -34 164 -72 193 -86 28 -13 80 -36 115 -50 34 -14 66 -30
72 -35 5 -5 14 -9 21 -9 7 0 50 -17 96 -39 45 -21 124 -56 173 -77 50 -21 105
-46 124 -55 37 -18 28 -20 166 41 22 10 96 43 165 73 69 30 145 63 170 75 25
11 124 55 220 97 250 110 541 238 795 350 121 54 270 119 330 145 96 42 588
258 670 295 112 50 149 67 225 100 47 20 101 44 120 52 19 9 53 23 75 33 22
10 56 24 75 33 19 8 154 68 300 132 146 64 279 122 295 130 17 7 50 22 75 33
25 11 65 28 90 39 25 12 99 44 165 73 66 29 143 63 170 75 28 13 84 37 125 55
41 18 98 43 125 55 28 13 145 64 260 115 116 51 228 100 250 110 22 10 225 99
450 198 226 99 507 222 625 275 118 52 346 152 505 222 160 70 310 136 335
147 25 11 63 28 85 38 64 29 373 165 590 260 110 48 227 100 260 115 69 31 78
35 240 105 66 29 152 67 190 84 39 18 107 48 152 67 l83 34 0 1930 0 1930
-112 49 c-62 27 -135 60 -163 72 -27 12 -149 65 -270 118 -121 54 -249 110
-285 126 -36 16 -182 80 -325 143 -143 63 -359 158 -480 212 -121 53 -229 101
-240 105 -11 4 -45 19 -75 33 -51 23 -265 117 -780 344 -118 52 -228 100 -245
108 -16 7 -124 55 -240 105 -115 51 -363 160 -550 242 -187 82 -367 161 -400
176 -33 14 -64 29 -70 32 -25 17 -43 16 -90 -5z m299 -560 c130 -58 254 -113
274 -122 20 -9 39 -17 42 -18 3 0 27 -11 54 -23 27 -12 50 -22 52 -22 2 0 32
-13 66 -29 61 -29 166 -75 953 -421 204 -89 403 -177 443 -196 41 -19 76 -34
78 -34 2 0 119 -51 261 -114 275 -121 611 -269 1018 -448 138 -61 274 -121
303 -133 l52 -24 -2 -1646 -3 -1646 -90 -40 c-49 -22 -103 -46 -120 -54 -16
-7 -68 -30 -115 -50 -47 -20 -103 -45 -125 -55 -84 -37 -116 -51 -330 -145
-121 -53 -238 -104 -260 -114 -22 -10 -56 -25 -75 -34 -75 -33 -317 -139 -347
-153 -18 -8 -48 -20 -65 -28 -18 -8 -71 -31 -118 -51 -47 -21 -103 -45 -125
-55 -22 -10 -101 -45 -175 -78 -189 -84 -368 -163 -555 -244 -88 -38 -178 -78
-200 -88 -22 -10 -83 -37 -135 -60 -52 -23 -108 -48 -125 -55 -16 -7 -68 -30
-115 -50 -47 -21 -110 -49 -140 -62 -51 -24 -207 -92 -325 -142 -27 -12 -57
-26 -66 -31 -15 -8 -17 115 -17 1613 1 892 -3 1655 -7 1695 -4 39 -11 72 -16
72 -5 0 -109 44 -231 98 -123 55 -277 123 -343 152 -66 29 -142 63 -170 75
-27 13 -120 53 -205 90 -85 37 -177 78 -205 90 -27 13 -162 73 -300 133 -351
154 -662 290 -715 314 -25 11 -63 28 -85 38 -22 9 -114 50 -205 90 -222 97
-219 96 -270 118 -25 11 -70 31 -100 45 -30 13 -149 66 -265 117 -115 50 -223
98 -240 105 -16 8 -97 44 -180 80 -82 36 -163 72 -180 80 l-30 14 45 19 c25
11 68 30 95 42 98 44 132 59 260 115 72 31 150 66 175 77 25 11 97 43 160 71
63 27 143 62 177 78 34 16 88 39 120 53 32 13 88 38 125 55 36 17 69 31 72 31
3 0 33 13 68 29 35 16 79 36 98 44 19 9 134 59 255 112 121 53 234 102 250
110 17 7 149 66 295 130 146 64 299 132 340 150 41 18 190 84 330 145 140 62
269 118 285 125 17 8 57 25 90 40 33 15 74 33 90 41 80 36 191 83 201 83 5 1
117 -46 248 -104z m-4520 -3329 l1 -1545 -250 -109 c-874 -384 -1195 -525
-1230 -542 -22 -10 -227 -100 -455 -200 -228 -100 -440 -193 -470 -207 -30
-14 -127 -57 -215 -95 -88 -39 -214 -94 -280 -123 -66 -29 -194 -85 -285 -125
-91 -39 -183 -80 -205 -90 -42 -20 -246 -110 -250 -110 -1 0 -1 698 -1 1551
l1 1550 160 70 c88 38 174 76 191 84 17 8 143 64 280 124 137 60 420 184 629
276 209 92 477 210 595 262 118 52 235 103 260 115 25 11 97 43 160 70 117 51
167 73 255 113 28 12 84 37 125 55 41 17 93 40 115 50 89 39 122 54 420 185
171 75 333 147 360 159 61 28 79 34 84 30 2 -2 4 -699 5 -1548z m577 1480
c154 -68 214 -95 322 -145 118 -55 198 -91 372 -171 182 -83 190 -87 485 -222
107 -49 209 -97 227 -106 l32 -16 -4 -286 c-2 -157 -7 -472 -10 -700 -3 -228
-8 -527 -10 -665 -2 -137 -7 -455 -10 -705 -5 -399 -12 -804 -14 -865 -1 -14
-16 -27 -53 -44 -29 -13 -82 -37 -118 -53 -36 -17 -162 -74 -280 -128 -118
-53 -249 -113 -290 -132 -41 -19 -118 -54 -170 -78 -52 -23 -103 -46 -113 -52
-16 -8 -396 -183 -562 -258 -66 -30 -159 -73 -242 -111 -38 -17 -144 -66 -238
-109 -93 -43 -196 -89 -227 -104 -32 -14 -82 -37 -110 -50 -57 -25 -281 -129
-388 -178 -36 -17 -137 -63 -225 -103 -88 -40 -196 -89 -240 -110 -44 -21
-127 -59 -185 -85 -58 -26 -134 -61 -170 -78 -36 -16 -86 -39 -112 -51 l-47
-21 -208 91 c-114 50 -226 99 -248 109 -22 10 -148 65 -280 123 -219 96 -281
124 -400 177 -22 10 -74 32 -115 50 -41 18 -102 45 -135 60 -33 14 -75 32 -93
40 -39 15 -38 17 58 60 68 30 99 44 195 85 111 49 386 170 419 185 23 10 120
53 216 95 515 226 661 290 718 316 34 16 64 29 66 29 2 0 37 15 78 34 40 19
107 48 148 66 41 18 103 45 138 61 34 16 64 29 67 29 2 0 28 11 57 24 29 13
152 68 273 121 121 53 238 105 260 115 22 10 171 75 330 145 160 70 346 152
415 182 189 83 202 89 238 104 17 8 32 18 33 24 0 5 0 765 1 1688 0 922 1
1677 2 1677 2 0 68 -29 147 -64z m2024 -926 c39 -17 93 -42 120 -55 28 -13
158 -73 290 -133 132 -60 274 -126 315 -145 41 -19 203 -93 360 -165 157 -71
302 -138 323 -148 l37 -18 -2 -1615 -3 -1615 -540 -237 c-297 -131 -567 -250
-600 -265 -33 -14 -170 -75 -305 -134 -329 -144 -815 -358 -867 -381 -42 -19
-223 -99 -763 -336 -157 -69 -303 -133 -325 -143 -22 -10 -60 -27 -85 -38 -25
-11 -88 -39 -140 -61 -94 -41 -130 -57 -183 -82 -29 -13 -51 -7 -202 62 -33
15 -76 34 -95 42 -190 83 -509 224 -653 288 -98 43 -179 79 -182 79 -2 0 -36
15 -77 34 -40 18 -122 55 -181 81 -59 26 -104 52 -100 56 4 4 58 30 118 57
106 47 145 65 320 147 44 20 123 56 175 80 146 66 206 94 319 146 57 27 105
49 106 49 2 0 41 17 87 39 81 38 543 250 603 276 17 8 83 39 149 69 65 31 120
56 121 56 2 0 51 23 110 50 59 28 108 50 111 50 2 0 48 21 101 46 54 25 141
65 193 89 52 24 136 62 185 85 80 37 161 75 370 170 33 15 83 37 110 49 28 13
73 33 100 46 106 50 262 122 317 145 l58 25 0 60 c5 304 21 1411 25 1675 2
135 7 452 10 705 8 535 13 879 14 882 1 3 65 -24 156 -67z"/>
</g>
</svg>
